<?xml version="1.0" encoding="UTF-8" standalone="no"?>
<!-- Created with Inkscape (http://www.inkscape.org/) -->

<svg
   width="64.105324mm"
   height="64.105324mm"
   viewBox="0 0 64.105324 64.105324"
   version="1.1"
   id="svg79"
   inkscape:version="1.2.2 (732a01da63, 2022-12-09)"
   sodipodi:docname="transparent-necolors-final.svg"
   xmlns:inkscape="http://www.inkscape.org/namespaces/inkscape"
   xmlns:sodipodi="http://sodipodi.sourceforge.net/DTD/sodipodi-0.dtd"
   xmlns="http://www.w3.org/2000/svg"
   xmlns:svg="http://www.w3.org/2000/svg">
  <sodipodi:namedview
     id="namedview81"
     pagecolor="#505050"
     bordercolor="#eeeeee"
     borderopacity="1"
     inkscape:pageshadow="0"
     inkscape:pageopacity="0"
     inkscape:pagecheckerboard="0"
     inkscape:document-units="mm"
     showgrid="false"
     fit-margin-top="0"
     fit-margin-left="0"
     fit-margin-right="0"
     fit-margin-bottom="0"
     inkscape:zoom="0.74564395"
     inkscape:cx="449.94665"
     inkscape:cy="143.50012"
     inkscape:window-width="1920"
     inkscape:window-height="1009"
     inkscape:window-x="1912"
     inkscape:window-y="-8"
     inkscape:window-maximized="1"
     inkscape:current-layer="g1031"
     inkscape:showpageshadow="2"
     inkscape:deskcolor="#505050" />
  <defs
     id="defs76" />
  <g
     inkscape:label="Layer 1"
     inkscape:groupmode="layer"
     id="layer1"
     transform="translate(-26.398527,-21.550009)">
    <g
       id="g1031"
       transform="translate(14.512997,-195.59093)">
      <rect
         transform="rotate(45)"
         y="123.97284"
         x="186.11082"
         height="42.329308"
         width="42.329308"
         id="rect4714-6-6"
         style="opacity:1;fill:none;fill-opacity:1;stroke:#E01142;stroke-width:3;stroke-miterlimit:4;stroke-dasharray:none;stroke-opacity:1" />
      <path
         style="fill:#E01142;fill-opacity:1;stroke-width:0.244439"
         d="m 24.741763,255.34405 v -3.129 c 1.62959,1.62348 3.25918,3.24696 4.88878,4.87043 v 3.14897 c -2.72196,-2.72196 -3.12411,-3.12572 -4.88878,-4.8904 z m 7.08872,7.07606 c 0,-3.50526 0,-7.01051 0,-10.51577 -0.89669,-0.90615 -1.79339,-1.8123 -2.69009,-2.71844 0.8967,-0.88557 1.7934,-1.77113 2.69009,-2.65668 0,-3.50642 0,-7.01283 0,-10.51924 1.66743,-1.67311 3.33485,-3.34623 5.00227,-5.01935 4.04334,0 8.08669,0 12.13003,0 -1.70525,1.71108 -3.4105,3.42215 -5.11575,5.13322 -2.29444,0 -4.58889,0 -6.88333,0 0,3.46846 0,6.93691 0,10.40537 -0.8967,0.88555 -1.79339,1.77111 -2.69009,2.65668 0.8967,0.90615 1.7934,1.81229 2.69009,2.71844 0,3.46718 0,6.93436 0,10.40153 2.21283,0 4.42566,0 6.63849,0 1.787,1.79254 3.57399,3.5851 5.36098,5.37766 -3.96186,0 -7.92372,0 -11.88558,0 -1.74903,-1.75448 -3.49807,-3.50895 -5.24711,-5.26342 z m 13.72722,-0.11428 h 5.37278 c 4.40186,-4.29722 8.64818,-8.74517 12.90558,-13.18395 -4.32303,-4.32676 -8.64605,-8.65352 -12.96908,-12.98028 -1.65387,-0.0467 -3.30774,-0.0934 -4.96161,-0.14006 1.67568,-1.66934 3.35136,-3.3387 5.02704,-5.00805 6.04112,6.15314 12.21041,12.17615 18.37204,18.20777 -6.13146,6.15782 -12.2872,12.29131 -18.44182,18.42595 -1.76833,-1.77378 -3.53662,-3.54758 -5.30493,-5.32138 z m -20.81594,-12.06421 v -7.21673 0.0397 c 3.80682,-3.80683 1.25024,-1.2804 4.88878,-4.91894 0,2.87655 0,5.7531 0,8.62965 -0.8153,0.80304 -1.6306,1.60608 -2.4459,2.40911 0.81759,0.78989 1.6811,1.74193 2.39091,2.45433 l -0.0672,3.38824 c -1.58884,-1.59514 -3.1777,-3.19027 -4.76655,-4.78541 z m 12.76325,0.235 -1.27528,-1.29132 1.29131,-1.27528 1.29133,-1.27528 h 5.2561 1.74204 l 1.27528,1.29132 1.27528,1.29133 -1.29132,1.27528 -1.29132,1.27528 h -1.74203 -5.2561 z"
         id="path85-7-7"
         inkscape:connector-curvature="0"
         sodipodi:nodetypes="ccccccccccccccccccccccccccccccccccccccccccccccccccccc" />
      <path
         style="fill:none;stroke:#E01142;stroke-width:0.934925px;stroke-linecap:butt;stroke-linejoin:miter;stroke-opacity:1"
         d="m 38.656243,229.32868 h 10.52562 l -5.18095,-5.28824 z"
         id="path881"
         inkscape:connector-curvature="0"
         sodipodi:nodetypes="cccc" />
      <path
         style="fill:none;stroke:#E01142;stroke-width:0.793343px;stroke-linecap:butt;stroke-linejoin:miter;stroke-opacity:1"
         d="m 23.127973,253.56829 v -8.93166 l -4.48741,4.39637 z"
         id="path881-3"
         inkscape:connector-curvature="0"
         sodipodi:nodetypes="cccc"
         inkscape:transform-center-x="0.8184541"
         inkscape:transform-center-y="-0.20360545" />
      <path
         style="fill:none;stroke:#E01142;stroke-width:0.911482px;stroke-linecap:butt;stroke-linejoin:miter;stroke-opacity:1"
         d="m 49.046873,269.14707 h -10.2617 l 5.05105,5.15564 z"
         id="path881-5"
         inkscape:connector-curvature="0"
         sodipodi:nodetypes="cccc" />
    </g>
  </g>
</svg>
