<?xml version="1.0" standalone="no"?>
<!DOCTYPE svg PUBLIC "-//W3C//DTD SVG 20010904//EN"
 "http://www.w3.org/TR/2001/REC-SVG-20010904/DTD/svg10.dtd">
<svg version="1.0" xmlns="http://www.w3.org/2000/svg"
 width="739.000000pt" height="739.000000pt" viewBox="0 0 739.000000 739.000000"
 preserveAspectRatio="xMidYMid meet">
<metadata>
Created by potrace 1.11, written by Peter Selinger 2001-2013
</metadata>
<g transform="translate(0.000000,739.000000) scale(0.100000,-0.100000)"
fill="#000000" stroke="none">
<path d="M0 4647 l0 -1852 395 -395 395 -395 0 650 0 650 -197 197 -198 198
198 198 197 197 0 1203 0 1202 -395 0 -395 0 0 -1853z"/>
<path d="M1497 6102 l-397 -397 0 -800 0 -800 -202 -202 -203 -203 203 -203
202 -202 0 -800 0 -800 398 -398 397 -397 1200 0 1200 0 -400 400 -400 400
-802 0 -803 0 0 802 0 803 -197 197 -198 198 198 198 197 197 0 803 0 802 803
0 802 0 400 400 400 400 -1200 0 -1200 0 -398 -398z"/>
<path d="M4195 6100 l-400 -400 400 0 400 0 1000 -1000 1000 -1000 -1000
-1000 -1000 -1000 -400 0 -400 0 400 -400 400 -400 1400 1400 1400 1400 -1400
1400 -1400 1400 -400 -400z"/>
<path d="M1995 3900 l-200 -200 200 -200 200 -200 800 0 800 0 200 200 200
200 -200 200 -200 200 -800 0 -800 0 -200 -200z"/>
<path d="M0 1702 l0 -802 395 0 395 0 0 408 0 407 -395 395 -395 395 0 -803z"/>
</g>
</svg>
